<svg xmlns="http://www.w3.org/2000/svg" viewBox="0 0 190.65 152.36"><defs><style>.cls-1{fill:#fff;}</style></defs><g id="Layer_2" data-name="Layer 2"><g id="Layer_1-2" data-name="Layer 1"><path class="cls-1" d="M182.29,112.73H169.17a8.33,8.33,0,0,0-8.34,8.33v31.3h29.82V121.09A8.36,8.36,0,0,0,182.29,112.73Z"/><path class="cls-1" d="M149.47,112.73H136.35a8.33,8.33,0,0,0-8.34,8.33v31.3h29.82V121.09A8.36,8.36,0,0,0,149.47,112.73Z"/><path class="cls-1" d="M116.65,112.73h-8.9l6.85-3.47L100.48,81.35a8.37,8.37,0,0,0-11.23-3.68L77.54,83.6a8.33,8.33,0,0,0-3.68,11.2l9.08,17.93H79.57L71.2,96.17a8.44,8.44,0,0,0-1.9-2.46L83.1,73.32,57.2,55.79A8.36,8.36,0,0,0,45.59,58L38.24,68.89a8.32,8.32,0,0,0,2.23,11.57L59,93l-3.06,1.55L38.8,83A8.36,8.36,0,0,0,27.19,85.2L19.84,96.06a8.33,8.33,0,0,0,2.22,11.58L25.47,110l-3.06,1.55-2-1.36a8.36,8.36,0,0,0-11.61,2.23L1.43,123.24a8.33,8.33,0,0,0,2.23,11.57l25.69,17.4.08.15.09,0,0,0H59.37V137.21l3-1.52v16.67H92.19V121.09c0-.16,0-.32,0-.48l3.31-1.67a8.28,8.28,0,0,0-.29,2.12v31.3H125V121.09A8.36,8.36,0,0,0,116.65,112.73ZM37.79,136.44a6.32,6.32,0,1,1,6.31-6.32A6.32,6.32,0,0,1,37.79,136.44Z"/><path class="cls-1" d="M146.56,93.09l26.61-13.47L159,51.72A8.36,8.36,0,0,0,147.81,48L136.1,54a8.33,8.33,0,0,0-3.67,11.2Z"/><path class="cls-1" d="M106.82,68.78A8.33,8.33,0,0,0,103.15,80l14.13,27.93,26.6-13.47-14.12-27.9a8.36,8.36,0,0,0-11.23-3.69Z"/><path class="cls-1" d="M77.27,26.12l25.91,17.55L119.9,19,94,1.44A8.36,8.36,0,0,0,82.4,3.67L75,14.54A8.35,8.35,0,0,0,77.27,26.12Z"/><path class="cls-1" d="M58.87,53.29,84.78,70.84,101.5,46.15,75.6,28.61A8.34,8.34,0,0,0,64,30.85L56.64,41.71A8.33,8.33,0,0,0,58.87,53.29Z"/></g></g></svg>