<svg xmlns="http://www.w3.org/2000/svg" viewBox="0 0 247.29 231.38"><defs><style>.cls-1{fill:#fff;}</style></defs><g id="Layer_2" data-name="Layer 2"><g id="Layer_1-2" data-name="Layer 1"><g id="Layer_2-2" data-name="Layer 2"><g id="Layer_1-2-2" data-name="Layer 1-2"><path class="cls-1" d="M231.59,185l-82.16-75.58a3.63,3.63,0,0,0-5,.1l-2.66,2.67L90.48,60.88c3.52-16,6.52-26,18.79-38.24L124.08,7.82a3.62,3.62,0,0,0-2.79-6.18l-12.11.8A64.7,64.7,0,0,0,67.6,21.27L26.7,62.18a3.62,3.62,0,0,0,0,5.11l1.46,1.46-4.8,4.8L21.9,72.09a3.72,3.72,0,0,0-5.12,0L1.06,87.82a3.62,3.62,0,0,0,0,5.11l27.28,27.28a3.61,3.61,0,0,0,5.12,0h0l15.72-15.72a3.65,3.65,0,0,0,0-5.12l-1.46-1.46,4.8-4.8L54,94.57a3.72,3.72,0,0,0,5.12,0l5.95-6,50.12,50.13-2.66,2.66a3.61,3.61,0,0,0-.11,5L188,228.58a3.59,3.59,0,0,0,2.58,1.16h.08a3.62,3.62,0,0,0,2.56-1.06l38.49-38.49a3.61,3.61,0,0,0,1-2.63A3.7,3.7,0,0,0,231.59,185Z"/></g></g><path class="cls-1" d="M244.71,28a3.62,3.62,0,0,0-6-1.31L212.61,52.82,198.3,49l-3.83-14.31L220.61,8.53a3.61,3.61,0,0,0-1.32-5.95A42.67,42.67,0,0,0,162,44.42a29.43,29.43,0,0,1-8.27,22L82.37,137.8a29.38,29.38,0,0,1-22,8.27,42.67,42.67,0,0,0-41.84,57.31,3.61,3.61,0,0,0,6,1.32l26.14-26.14,14.31,3.83,3.84,14.31L42.59,222.84a3.61,3.61,0,0,0,1.32,6A42.67,42.67,0,0,0,101.22,187h0a29.41,29.41,0,0,1,8.27-22.05l71.33-71.33a29.36,29.36,0,0,1,22.05-8.27A42.68,42.68,0,0,0,244.71,28Z"/></g></g></svg>