<svg xmlns="http://www.w3.org/2000/svg" viewBox="0 0 227.47 218.56"><defs><style>.cls-1{fill:#fff;}</style></defs><g id="Layer_2" data-name="Layer 2"><g id="Layer_1-2" data-name="Layer 1"><path class="cls-1" d="M223.86,218.56H3.62A3.62,3.62,0,0,1,0,214.94V3.62A3.62,3.62,0,0,1,6.12,1L226.36,212.33a3.62,3.62,0,0,1-2.5,6.23ZM7.24,211.33H214.86L7.24,12.1Z"/><path class="cls-1" d="M133.91,182.39H39.79a3.62,3.62,0,0,1-3.62-3.62V88.46a3.63,3.63,0,0,1,6.13-2.61l94.11,90.31a3.62,3.62,0,0,1-2.5,6.23Zm-90.5-7.24h81.5L43.41,97Z"/><rect class="cls-1" x="3.62" y="39.7" width="15.24" height="7.24"/><rect class="cls-1" x="3.62" y="63.93" width="15.24" height="7.23"/><rect class="cls-1" x="3.62" y="88.17" width="15.24" height="7.24"/><rect class="cls-1" x="3.62" y="112.41" width="15.24" height="7.24"/><rect class="cls-1" x="3.62" y="136.65" width="15.24" height="7.23"/><rect class="cls-1" x="3.62" y="160.88" width="15.24" height="7.24"/><rect class="cls-1" x="3.62" y="185.12" width="15.24" height="7.24"/><rect class="cls-1" x="178.03" y="199.7" width="7.24" height="15.24"/><rect class="cls-1" x="153.79" y="199.7" width="7.24" height="15.24"/><rect class="cls-1" x="129.55" y="199.7" width="7.24" height="15.24"/><rect class="cls-1" x="105.32" y="199.7" width="7.24" height="15.24"/><rect class="cls-1" x="81.08" y="199.7" width="7.24" height="15.24"/><rect class="cls-1" x="56.84" y="199.7" width="7.24" height="15.24"/><rect class="cls-1" x="32.61" y="199.7" width="7.24" height="15.24"/></g></g></svg>