<?xml version="1.0" encoding="utf-8"?>
<!-- Generator: Adobe Illustrator 24.3.0, SVG Export Plug-In . SVG Version: 6.00 Build 0)  -->
<svg version="1.1" id="Capa_1" xmlns="http://www.w3.org/2000/svg" xmlns:xlink="http://www.w3.org/1999/xlink" x="0px" y="0px"
	 viewBox="0 0 31.2 31.2" style="enable-background:new 0 0 31.2 31.2;" xml:space="preserve">
<style type="text/css">
	.st0{fill:#FFFFFF;}
</style>
<g>
	<g id="c48_bag">
		<path class="st0" d="M29.1,8.2h-8.3v-1c0-4.4-4.2-4.2-4.2-4.2h-2c-4.4,0-4.2,4.2-4.2,4.2v1H2c-2.1,0-2,2.1-2,2.1v4.1
			c0,0,8.9,3.2,15.5,3.2c7.3,0,15.7-3.3,15.7-3.3v-4C31.2,8.1,29.1,8.2,29.1,8.2z M13.2,7c0-2.1,2.4-2.1,2.4-2.1
			c2.5,0,2.4,2.1,2.4,2.1v1h-4.9V7z M18.2,16.8l-5.2,0v-2h5.2V16.8z"/>
		<path class="st0" d="M31.2,26.2V15.8c0,0-6.8,3.1-15.7,3.1C7.3,18.9,0,15.7,0,15.7v10.5c0,2.1,2,2.1,2,2.1h27.1
			C31.3,28.3,31.2,26.2,31.2,26.2z M18.2,20.7c0,0.7-0.6,1.3-1.3,1.3h-2.6c-0.7,0-1.3-0.6-1.3-1.3v-1.3h5.2V20.7z"/>
	</g>
	<g id="Capa_1_101_">
	</g>
</g>
</svg>
