<svg xmlns="http://www.w3.org/2000/svg" viewBox="0 0 163.16 131.45"><defs><style>.cls-1{fill:#fff;}</style></defs><g id="Layer_2" data-name="Layer 2"><g id="Layer_1-2" data-name="Layer 1"><path class="cls-1" d="M128.16,0H35A35.1,35.1,0,0,0,0,35V62.76a35.1,35.1,0,0,0,35,35h70l9.24,33.69,13.38-33.69h.5a35.1,35.1,0,0,0,35-35V35A35.1,35.1,0,0,0,128.16,0ZM41.83,63.41A14.31,14.31,0,1,1,56.15,49.1,14.31,14.31,0,0,1,41.83,63.41Zm41,0A14.31,14.31,0,1,1,97.1,49.1,14.3,14.3,0,0,1,82.79,63.41Zm40.95,0A14.31,14.31,0,1,1,138.05,49.1,14.31,14.31,0,0,1,123.74,63.41Z"/></g></g></svg>