<svg xmlns="http://www.w3.org/2000/svg" viewBox="0 0 464.44 294.96"><defs><style>.cls-1{fill:#fff;}</style></defs><g id="Layer_2" data-name="Layer 2"><g id="Layer_1-2" data-name="Layer 1"><path class="cls-1" d="M70.75,295a39,39,0,1,1,39.05-39A39.08,39.08,0,0,1,70.75,295Zm0-59.75a20.71,20.71,0,1,0,20.7,20.71A20.73,20.73,0,0,0,70.75,235.21Z"/><path class="cls-1" d="M0,251.54H21.42a49.52,49.52,0,0,1,98.66,0H283.37V0H0Z"/><path class="cls-1" d="M380.58,295a39,39,0,1,1,39.05-39A39.09,39.09,0,0,1,380.58,295Zm0-59.75a20.71,20.71,0,1,0,20.71,20.71A20.73,20.73,0,0,0,380.58,235.21Z"/><path class="cls-1" d="M389.13,61.05h-92.4V251.54h34.53a49.52,49.52,0,0,1,98.65,0h34.53V156.61Zm-70,78.61V78h59.61l48.59,61.65Z"/></g></g></svg>