<svg xmlns="http://www.w3.org/2000/svg" viewBox="0 0 584.78 226.8"><defs><style>.cls-1{fill:#fff;}</style></defs><g id="Layer_2" data-name="Layer 2"><g id="Layer_1-2" data-name="Layer 1"><path class="cls-1" d="M193.2,121.8v-8.4a4.2,4.2,0,1,1,8.4,0v8.4a4.2,4.2,0,1,1-8.4,0Zm4.2,29.4a4.2,4.2,0,0,0-4.2,4.2v8.4a4.2,4.2,0,1,0,8.4,0v-8.4a4.2,4.2,0,0,0-4.2-4.2Zm-16.8,75.6H4.2A4.2,4.2,0,0,1,0,222.6V130.2A4.2,4.2,0,0,1,4.2,126v-8.4a12.6,12.6,0,0,1,25.2,0V126H63V105a4.2,4.2,0,0,0-8.4,0v8.4a4.2,4.2,0,0,1-8.4,0V105a12.6,12.6,0,0,1,25.2,0v4.2h4.2a4.2,4.2,0,1,1,0,8.4H71.4V126h21v-8.4a4.18,4.18,0,0,1,1.23-3,12.65,12.65,0,0,1-1.23-5.44V100.8a4.2,4.2,0,0,1,4.2-4.2h25.2a4.2,4.2,0,0,1,4.2,4.2h8.4a4.2,4.2,0,0,1,0,8.4H126a12.61,12.61,0,0,1-1.23,5.43,4.18,4.18,0,0,1,1.23,3V126h8.4v-8.4a4.2,4.2,0,0,1,4.2-4.2h25.2a4.2,4.2,0,0,1,4.2,4.2V126h8.4V105A12.61,12.61,0,0,1,189,92.4h50.4A12.61,12.61,0,0,1,252,105V214.2a12.61,12.61,0,0,1-12.6,12.6H189a12.58,12.58,0,0,1-5.43-1.23,4.18,4.18,0,0,1-3,1.23Zm63-12.6V142.8H184.8v71.4a4.2,4.2,0,0,0,4.2,4.2h50.4a4.2,4.2,0,0,0,4.2-4.2Zm-58.8-79.8h58.8V105a4.2,4.2,0,0,0-4.2-4.2H189a4.2,4.2,0,0,0-4.2,4.2Zm-84,0v16.8h58.8V134.4Zm0,67.2h58.8v-42H100.8Zm42-75.6h16.8v-4.2H142.8Zm-25.2,0v-4.2H100.8V126Zm-16.8-16.81A4.22,4.22,0,0,0,105,113.4h8.38a4.22,4.22,0,0,0,4.21-4.21V105H100.8ZM12.6,126H21v-8.4a4.2,4.2,0,0,0-8.4,0Zm163.8,8.4H168v71.4a4.2,4.2,0,0,1-4.2,4.2H96.6a4.2,4.2,0,0,1-4.2-4.2V134.4H8.4v84h168ZM138.6,168H121.8a4.2,4.2,0,0,0,0,8.4h16.8a4.2,4.2,0,1,0,0-8.4ZM84,180.6v25.2a4.2,4.2,0,0,1-4.2,4.2H21a4.2,4.2,0,0,1-4.2-4.2V180.6a4.2,4.2,0,0,1,4.2-4.2H79.8a4.2,4.2,0,0,1,4.2,4.2Zm-8.4,4.2H25.2v16.8H75.6ZM84,147v16.8a4.2,4.2,0,0,1-4.2,4.2H21a4.2,4.2,0,0,1-4.2-4.2V147a4.2,4.2,0,0,1,4.2-4.2H79.8A4.2,4.2,0,0,1,84,147Zm-8.4,4.2H25.2v8.4H75.6Zm84-117.6a4.2,4.2,0,0,0,4.2-4.2V21a4.2,4.2,0,0,0-8.4,0v8.4a4.2,4.2,0,0,0,4.2,4.2Zm50.4,0a4.2,4.2,0,0,0,4.2-4.2V21a4.2,4.2,0,0,0-8.4,0v8.4a4.2,4.2,0,0,0,4.2,4.2ZM0,21V4.2A4.2,4.2,0,0,1,4.2,0H247.8A4.2,4.2,0,0,1,252,4.2V58.8a4.2,4.2,0,0,1-4.2,4.2H147a4.2,4.2,0,0,1-4.2-4.2V25.2H113.4V42h4.2a4.21,4.21,0,0,1,3.76,2.32L134,69.52a4.21,4.21,0,0,1-3.76,6.08h-42a4.21,4.21,0,0,1-3.76-6.08L97,44.32A4.21,4.21,0,0,1,100.8,42H105V25.2H50.4V42h4.2a4.21,4.21,0,0,1,3.76,2.32L71,69.52A4.21,4.21,0,0,1,67.2,75.6h-42a4.21,4.21,0,0,1-3.76-6.08L34,44.32A4.21,4.21,0,0,1,37.8,42H42V25.2H4.2A4.2,4.2,0,0,1,0,21ZM52,50.4H40.39L32,67.2H60.41Zm63,0H103.39L95,67.2h28.42ZM151.2,21V42H189V8.4H151.2Zm92.4,29.4H151.2v4.2h92.4Zm0-42H197.4V42h46.2ZM8.4,16.8H142.8V8.4H8.4ZM113.4,147a4.2,4.2,0,1,0-4.2-4.2,4.19,4.19,0,0,0,4.2,4.2Zm16.8,0a4.2,4.2,0,1,0-4.2-4.2,4.19,4.19,0,0,0,4.2,4.2Zm16.8,0a4.2,4.2,0,1,0-4.2-4.2A4.19,4.19,0,0,0,147,147Z"/><path class="cls-1" d="M340.47,5,322.84,44.21l19.48,46H325.8L309.64,51.61H302V90.2H286.34V5H302V39.65h7.89L325.43,5Z"/><path class="cls-1" d="M382.63,65.91A51.92,51.92,0,0,1,376,80.34a24.39,24.39,0,0,1-8.94,7.89,43.17,43.17,0,0,1-13.32,3.69L351.69,81.2q7-1.49,10.6-4.38t6-9.55h-5.42L341.21,5h15.66l15.65,53.14L386.33,5h15.41Z"/><path class="cls-1" d="M438.11,44.21l20.35,46H441.94L428.62,54.69,415.8,90.2H399.65l19.72-45.37L401.13,5h16.52l11.22,30.09L440.7,5h15.91Z"/><path class="cls-1" d="M503.21,90.2V52H481.14V90.2H465.48V5h15.66V39.4h22.07V5H519V90.2Z"/><path class="cls-1" d="M581.87,5V90.2H566.09V57.9H556.6L544.39,90.2H527.87L543,54.94a21.77,21.77,0,0,1-9.43-8.88q-3.14-5.67-3.14-14.3Q530.46,5,560.29,5ZM566.09,46.43v-30h-5.43q-7.39,0-10.66,3.64T546.73,32q0,14.43,12.08,14.43Z"/><path class="cls-1" d="M352.69,218.4h-13.6l-1.35-32.82q-.66-18-.67-25.62l.11-5.85-10.67,55.75H313L301.89,154c.07,2.25.11,5.69.11,10.34q0,11.81-.45,21.69l-1.23,32.37H286.94l4.95-77.66h18L320,195.47l9.44-54.73h18.32Z"/><path class="cls-1" d="M402.37,140.74l-1.46,10.67H378.09v22.26H398v10.56h-19.9v23.38h24.28V218.4H363.82V140.74Z"/><path class="cls-1" d="M456.54,140.74V218.4H442.16V188.5a22.7,22.7,0,0,1-6.8,4.72,20,20,0,0,1-7.93,1.47A18.34,18.34,0,0,1,413.55,189q-5.44-5.73-5.45-16.07V140.74h14.16V172q0,6.3,2.31,8.94a8.38,8.38,0,0,0,6.68,2.64,13.43,13.43,0,0,0,10.91-5.28V140.74Z"/><path class="cls-1" d="M512.63,140.74,511.05,152h-16V218.4H480.82V152H464.18V140.74Z"/><path class="cls-1" d="M558.43,174.4q6.68,6,6.68,18.26,0,13.26-6.85,19.5T538.7,218.4H519.48V140.74h14.28v27.64h5Q551.74,168.38,558.43,174.4Zm-11.24,29.89c1.91-2.2,2.86-6,2.86-11.4q0-7.53-2.86-10.85T538,178.73h-4.27v28.88h4.38Q544.32,207.61,547.19,204.29Zm23.32-63.55h14.27V218.4H570.51Z"/></g></g></svg>