<?xml version="1.0" encoding="utf-8"?>
<!-- Generator: Adobe Illustrator 24.3.0, SVG Export Plug-In . SVG Version: 6.00 Build 0)  -->
<svg version="1.1" id="Layer_1" xmlns="http://www.w3.org/2000/svg" xmlns:xlink="http://www.w3.org/1999/xlink" x="0px" y="0px"
	 viewBox="0 0 1674.8 1674.8" style="enable-background:new 0 0 1674.8 1674.8;" xml:space="preserve">
<style type="text/css">
	.st0{fill:#FFFFFF;}
</style>
<g>
	<g>
		<g>
			<g id="XMLID_1_">
				<path class="st0" d="M837.4,623.3c129.5,0,234.8,105.3,234.8,234.8c0,129.5-105.3,234.8-234.8,234.8
					c-129.5,0-234.8-105.3-234.8-234.8C602.6,728.6,707.9,623.3,837.4,623.3z M952.6,797.5c6.6-6.6,6.6-17.4,0-24
					c-6.6-6.6-17.4-6.6-24,0L795.5,906.6l-49.3-49.3c-6.6-6.6-17.4-6.6-24,0c-6.6,6.6-6.6,17.4,0,24l61.3,61.3c3.3,3.3,7.7,5,12,5
					c4.3,0,8.7-1.7,12-5L952.6,797.5z"/>
				<path class="st0" d="M1363,551.5c-4.7,175.4-49.6,351.4-127,496.9c-91.3,171.6-236.3,307.3-398.6,373.1
					c-162.3-65.9-307.3-201.5-398.6-373.1c-77.4-145.5-122.3-321.5-127-496.9c138-36.3,336.1-109.3,525.6-253.8
					C1026.9,442.3,1225,515.3,1363,551.5z M1106.1,858.1c0-71.8-27.9-139.2-78.7-190c-50.8-50.7-118.2-78.7-190-78.7
					c-71.8,0-139.3,27.9-190,78.7c-50.7,50.8-78.7,118.2-78.7,190c0,71.8,27.9,139.3,78.7,190c50.8,50.7,118.2,78.7,190,78.7
					c71.8,0,139.2-27.9,190-78.7C1078.2,997.3,1106.1,929.8,1106.1,858.1z"/>
				<path class="st0" d="M1532,409.7c21.4,247-30.4,508.7-142.9,720.1c-122.1,229.4-328.1,407-551.7,475.5
					c-223.6-68.6-429.6-246.1-551.7-475.5C173.2,918.4,121.4,656.7,142.8,409.7c32.5-4.5,118.2-18.8,229-57.5
					c81.6-28.5,159.9-64.5,232.6-106.8c85.9-50,164.3-109.2,233.1-176c68.8,66.8,147.1,126,233.1,176
					c72.7,42.3,150.9,78.3,232.6,106.8C1413.8,390.9,1499.5,405.3,1532,409.7z M1397.2,538.7c0.1-7.9-5.2-14.8-12.8-16.7
					c-137.7-34.9-342.6-108.1-536.6-259.1c-6.1-4.8-14.7-4.8-20.8,0c-194,151-398.9,224.2-536.6,259.1c-7.6,1.9-12.9,8.8-12.8,16.7
					c2.8,185.1,49.4,371.8,131.2,525.6c47.8,89.8,109.4,169.9,183,238.1c72.5,67.1,155.2,120,239.3,153.1c2,0.8,4.1,1.2,6.2,1.2
					c2.1,0,4.2-0.4,6.2-1.2c84.1-33.1,166.9-86.1,239.3-153.1c73.7-68.2,135.2-148.3,183-238.1
					C1347.8,910.5,1394.4,723.8,1397.2,538.7z"/>
			</g>
		</g>
	</g>
</g>
</svg>
