<svg xmlns="http://www.w3.org/2000/svg" viewBox="0 0 232.75 228.1"><defs><style>.cls-1{fill:#fff;}</style></defs><g id="Layer_2" data-name="Layer 2"><g id="Layer_1-2" data-name="Layer 1"><path class="cls-1" d="M231.59,183.33l-82.16-75.58a3.63,3.63,0,0,0-5,.1l-2.66,2.67L90.48,59.24C94,43.26,97,33.25,109.27,21L124.08,6.18A3.62,3.62,0,0,0,121.29,0L109.18.8A64.73,64.73,0,0,0,67.6,19.63L26.7,60.54a3.62,3.62,0,0,0,0,5.11l1.46,1.46-4.8,4.8L21.9,70.45a3.72,3.72,0,0,0-5.12,0L1.06,86.18a3.62,3.62,0,0,0,0,5.11l27.28,27.28a3.62,3.62,0,0,0,5.12,0l15.72-15.72a3.63,3.63,0,0,0,0-5.12l-1.46-1.46,4.8-4.8L54,92.93a3.72,3.72,0,0,0,5.12,0l5.95-6,50.12,50.13-2.66,2.66a3.62,3.62,0,0,0-.11,5L188,226.94a3.61,3.61,0,0,0,2.58,1.16h.08a3.62,3.62,0,0,0,2.56-1.06l38.49-38.49a3.57,3.57,0,0,0,1.05-2.63A3.65,3.65,0,0,0,231.59,183.33Z"/></g></g></svg>