<?xml version="1.0" encoding="utf-8"?>
<!-- Generator: Adobe Illustrator 24.3.0, SVG Export Plug-In . SVG Version: 6.00 Build 0)  -->
<svg version="1.1" id="Layer_1" xmlns="http://www.w3.org/2000/svg" xmlns:xlink="http://www.w3.org/1999/xlink" x="0px" y="0px"
	 viewBox="0 0 94.4 90.3" style="enable-background:new 0 0 94.4 90.3;" xml:space="preserve">
<style type="text/css">
	.st0{fill:#FFFFFF;}
</style>
<g>
	<path class="st0" d="M86.4,37.9l-0.6-0.6c-1.4-1.3-2.5-2.4-2.9-3.7c-0.5-1.4-0.1-3.5,0.3-5.6c0.5-2.9,1.1-6.1-0.6-8.5
		c-1.7-2.4-4.8-2.8-8-3.2c-2.1-0.3-4.2-0.6-5.3-1.4c-1.1-0.8-2-2.7-3-4.6c-1.4-3-3-5.8-5.6-6.7c-2.7-0.9-5.5,0.6-8.2,2.1
		c-1.8,1-3.8,2-5.3,2c-1.4,0-3.3-1-5-1.9l-0.7-0.4c-2.5-1.3-5.1-2.7-7.7-1.8c-2.8,1-4.3,4-5.5,6.6l-0.1,0.3
		c-0.8,1.7-1.7,3.5-2.8,4.4c-1.2,0.8-3.3,1.1-5.4,1.4c-2.9,0.4-6.3,0.8-8,3.2c-1.7,2.3-1.1,5.6-0.6,8.5c0.3,1.7,0.8,4.2,0.3,5.6
		c-0.4,1.3-1.9,2.7-3.4,4.1c-2.2,2.1-4.7,4.4-4.7,7.4c0,2.9,2.3,5.1,4.5,7.3L8.7,53c1.4,1.3,2.6,2.5,3,3.7c0.5,1.4,0.1,3.5-0.3,5.6
		c-0.5,2.7-1.1,6.1,0.6,8.5c1.7,2.4,5,2.8,7.9,3.2c1.9,0.2,4.2,0.6,5.4,1.4c1.1,0.8,2.1,2.7,3,4.6c1.3,2.7,2.7,5.8,5.6,6.7
		c0.5,0.2,1.1,0.3,1.6,0.3c2.2,0,4.5-1.2,6.6-2.3c1.9-1,3.8-2,5.3-2c1.5,0,3.3,1,5.1,1.9l0.6,0.3c2,1.1,4.1,2.2,6.2,2.2
		c0.6,0,1.2-0.1,1.7-0.3c2.8-0.9,4.3-4,5.5-6.7l0.1-0.2c0.9-1.8,1.7-3.6,2.9-4.4c1.2-0.9,3.3-1.1,5.4-1.4c2.9-0.4,6.2-0.8,7.9-3.2
		c1.7-2.3,1.1-5.6,0.6-8.6c-0.4-2-0.8-4.2-0.3-5.5c0.5-1.4,2.1-2.9,3.4-4.2c2.2-2.1,4.7-4.4,4.7-7.4C90.9,42.2,88.6,40,86.4,37.9z
		 M80,55.8c-0.7,2.2-0.2,4.8,0.2,7.1l0,0.1c0.4,2.5,0.9,4.8-0.1,6.1c-1,1.3-3.6,1.7-5.9,2c-2.3,0.3-4.9,0.7-6.7,2
		c-1.6,1.2-2.7,3.3-3.7,5.2l-0.3,0.5c-0.9,1.8-2.2,4.6-3.8,5.1c-1.5,0.5-3.6-0.7-5.8-1.9c-2.2-1.2-4.5-2.4-6.8-2.4
		c-2.3,0-4.7,1.3-6.8,2.4l-0.4,0.2c-2.1,1.1-3.9,2.1-5.4,1.6c-1.6-0.5-2.7-2.9-3.8-5.1l-0.1-0.1c-1-2.1-2.1-4.3-3.8-5.6
		c-1.8-1.3-4.3-1.6-6.8-2c-2.5-0.3-5-0.7-5.9-2c-0.9-1.3-0.5-3.6-0.1-6l0-0.2c0.5-2.7,0.8-5.1,0.2-7.1c-0.7-2.1-2.6-3.8-4.2-5.4
		l-0.2-0.1c-1.8-1.7-3.6-3.4-3.6-5.1c0-1.7,1.8-3.4,3.6-5.1l0.3-0.3c1.7-1.6,3.4-3.2,4.1-5.3c0.7-2.1,0.2-4.6-0.2-7.1l-0.1-0.5
		c-0.4-2.3-0.8-4.5,0.1-5.7c1-1.3,3.6-1.7,5.9-2c2.3-0.3,5-0.7,6.8-2c1.6-1.2,2.7-3.3,3.6-5.2l0.3-0.5c1-2.1,2.2-4.6,3.7-5.1
		c0.2-0.1,0.5-0.1,0.7-0.1c0,0,0,0,0,0c1.4,0,3,0.8,5.1,2c2.2,1.2,4.4,2.4,6.7,2.4c2.3,0,4.7-1.3,6.8-2.4l0.4-0.2
		C56.6,7,58.4,6,59.8,6.5c1.6,0.5,2.7,2.9,3.8,5.1l0.1,0.1c1,2.1,2.1,4.3,3.8,5.6c1.8,1.3,4.3,1.6,6.7,2c2.2,0.3,5,0.7,5.9,2
		c0.9,1.3,0.5,3.7,0,6.2c-0.5,2.6-0.9,5.1-0.2,7.1c0.7,2.1,2.5,3.8,4.2,5.4l0.1,0.1c1.8,1.7,3.6,3.5,3.6,5.1c0,1.7-1.9,3.5-3.7,5.2
		l-0.2,0.2C82.3,52.2,80.6,53.8,80,55.8z"/>
	<path class="st0" d="M47.2,12.6c-18,0-32.5,14.6-32.5,32.5c0,18,14.6,32.5,32.5,32.5c18,0,32.5-14.6,32.5-32.5
		C79.8,27.2,65.2,12.6,47.2,12.6z M46.5,59.1h-20v-4.2l7.2-7.2c2.1-2.2,3.5-3.7,4.2-4.5c0.6-0.7,1-1.5,1.4-2.3
		c0.3-0.7,0.4-1.5,0.4-2.2c0.1-1-0.3-1.9-1-2.6c-0.7-0.6-1.6-0.9-2.5-0.8c-1.1,0-2.2,0.3-3.2,0.8c-1.2,0.6-2.3,1.3-3.3,2.2l-3.3-3.9
		c1.1-1,2.3-1.8,3.5-2.5c0.9-0.5,2-0.9,3-1.1c1.2-0.3,2.4-0.4,3.7-0.4c1.6,0,3.2,0.3,4.7,1c1.3,0.6,2.4,1.5,3.2,2.8
		c0.8,1.2,1.2,2.6,1.1,4c0,1.3-0.2,2.5-0.7,3.7c-0.5,1.3-1.3,2.5-2.2,3.6c-1.6,1.8-3.3,3.6-5.1,5.2l-3.7,3.5v0.3h12.5V59.1z
		 M65.8,57c-2,1.7-4.8,2.6-8.4,2.6c-2.7,0.1-5.3-0.4-7.7-1.5v-5.2c2.3,1.2,4.9,1.8,7.5,1.9c3.7,0,5.5-1.5,5.5-4.5
		c0-2.9-1.9-4.3-5.7-4.3c-0.8,0-1.5,0.1-2.3,0.2c-0.7,0.1-1.3,0.3-2,0.4l-2.4-1.3l1.1-14.5h15.5v5.1H56.7l-0.5,5.6l0.7-0.1
		c1-0.2,2-0.3,3-0.2c2.4-0.1,4.8,0.7,6.6,2.3c1.7,1.7,2.6,4,2.5,6.4C69,52.4,67.9,55.1,65.8,57z"/>
</g>
</svg>
