<?xml version="1.0" encoding="utf-8"?>
<!-- Generator: Adobe Illustrator 24.3.0, SVG Export Plug-In . SVG Version: 6.00 Build 0)  -->
<svg version="1.1" id="Layer_1" xmlns="http://www.w3.org/2000/svg" xmlns:xlink="http://www.w3.org/1999/xlink" x="0px" y="0px"
	 viewBox="0 0 62.9 63.9" style="enable-background:new 0 0 62.9 63.9;" xml:space="preserve">
<style type="text/css">
	.st0{fill:#0092D7;}
</style>
<g>
	<path class="st0" d="M42.7,12.4c4,0,8.9-1.3,14.6-4c1.3-0.6,2.5-0.5,3.7,0.3s1.9,1.9,1.9,3.4v30.3c0,1.4-0.6,2.5-1.8,3.2
		c-4.9,3.4-10,5.1-15.2,5.1c-3,0-6.7-0.7-11-2.2c-4.3-1.5-7.6-2.2-9.7-2.2c-5.2,0-9.9,1-14.2,2.9v11.7c0,0.8-0.3,1.5-0.9,2.1
		c-0.6,0.6-1.3,0.9-2.1,0.9H6c-0.8,0-1.5-0.3-2.1-0.9C3.3,62.4,3,61.7,3,60.9V12.7C1,11.3,0,9.4,0,7c0-2,0.7-3.7,2.1-5.1
		s3.1-2,5.1-1.9c1.8,0.1,3.4,0.8,4.7,2s2,2.7,2.1,4.5c0,0.2,0,0.3,0,0.5c0,0.8-0.2,1.7-0.5,2.5C16.2,8.5,19.1,8,22,8
		s6.6,0.7,10.9,2.2C37.3,11.6,40.5,12.4,42.7,12.4z"/>
</g>
</svg>
