<?xml version="1.0" encoding="utf-8"?>
<!-- Generator: Adobe Illustrator 24.3.0, SVG Export Plug-In . SVG Version: 6.00 Build 0)  -->
<svg version="1.0" id="Layer_1" xmlns="http://www.w3.org/2000/svg" xmlns:xlink="http://www.w3.org/1999/xlink" x="0px" y="0px"
	 viewBox="0 0 62.86 63.86" style="enable-background:new 0 0 62.86 63.86;" xml:space="preserve">
<style type="text/css">
	.st0{fill:#FFFFFF;}
</style>
<g>
	<path class="st0" d="M42.65,12.35c3.99,0,8.86-1.33,14.59-3.99c1.25-0.58,2.49-0.5,3.74,0.25c1.25,0.75,1.87,1.87,1.87,3.37v30.31
		c0,1.42-0.58,2.49-1.75,3.24c-4.91,3.41-9.98,5.11-15.22,5.11c-2.99,0-6.65-0.73-10.98-2.18c-4.32-1.45-7.57-2.18-9.73-2.18
		c-5.16,0-9.9,0.96-14.22,2.87v11.72c0,0.83-0.29,1.54-0.87,2.12c-0.58,0.58-1.29,0.87-2.12,0.87h-2c-0.83,0-1.54-0.29-2.12-0.87
		c-0.58-0.58-0.87-1.29-0.87-2.12V12.73C1,11.32,0,9.4,0,6.99c0-2,0.71-3.68,2.12-5.05c1.41-1.37,3.12-2.02,5.11-1.93
		c1.83,0.08,3.39,0.75,4.68,2c1.29,1.25,1.97,2.74,2.06,4.49c0,0.17,0,0.33,0,0.5c0,0.83-0.17,1.66-0.5,2.49
		c2.74-1,5.59-1.5,8.54-1.5c2.95,0,6.59,0.73,10.91,2.18C37.25,11.63,40.49,12.35,42.65,12.35z"/>
</g>
</svg>
