<svg xmlns="http://www.w3.org/2000/svg" viewBox="0 0 69 53.59"><defs><style>.cls-1{fill:#fff;}</style></defs><g id="Layer_2" data-name="Layer 2"><g id="Layer_1-2" data-name="Layer 1"><path class="cls-1" d="M2.73,53.59v-4a27.18,27.18,0,0,0,13-9.58,22.94,22.94,0,0,0,4.73-13.6A4.13,4.13,0,0,0,20,24.15a.73.73,0,0,0-.64-.48,2.72,2.72,0,0,0-1.29.64,10.71,10.71,0,0,1-6.42,1.85,10.83,10.83,0,0,1-8.14-3.74A12.5,12.5,0,0,1,0,13.56,13.09,13.09,0,0,1,4,4.05a13.37,13.37,0,0,1,9.87-4A15.11,15.11,0,0,1,25.47,5.5Q30.41,11,30.41,20.3a30.83,30.83,0,0,1-6.66,19.41Q17.09,48.3,2.73,53.59Zm38.59,0v-4a27.18,27.18,0,0,0,13-9.58,22.94,22.94,0,0,0,4.73-13.6,4.13,4.13,0,0,0-.48-2.25.73.73,0,0,0-.64-.48,2.72,2.72,0,0,0-1.29.64,10.7,10.7,0,0,1-6.41,1.85,10.83,10.83,0,0,1-8.15-3.74,12.5,12.5,0,0,1-3.49-8.86,13.09,13.09,0,0,1,4-9.51,13.37,13.37,0,0,1,9.87-4A15.09,15.09,0,0,1,64.06,5.5Q69,11,69,20.3a30.83,30.83,0,0,1-6.66,19.41Q55.68,48.3,41.32,53.59Z"/></g></g></svg>