<svg xmlns="http://www.w3.org/2000/svg" viewBox="0 0 69 53.59"><defs><style>.cls-1{fill:#fff;}</style></defs><g id="Layer_2" data-name="Layer 2"><g id="Layer_1-2" data-name="Layer 1"><path class="cls-1" d="M27.68,0V3.93A27.19,27.19,0,0,0,14.6,13.52a22.92,22.92,0,0,0-4.73,13.6,4.12,4.12,0,0,0,.48,2.24.87.87,0,0,0,.72.49,2.52,2.52,0,0,0,1.21-.57,10.83,10.83,0,0,1,6.49-1.84,10.88,10.88,0,0,1,8.11,3.73A12.48,12.48,0,0,1,30.41,40a13.06,13.06,0,0,1-4.05,9.46,13.33,13.33,0,0,1-9.83,4.09A15.07,15.07,0,0,1,4.89,48.06Q0,42.52,0,33.22A30.86,30.86,0,0,1,6.66,13.8Q13.32,5.22,27.68,0ZM66.27,0V3.93a27.19,27.19,0,0,0-13.08,9.59,22.92,22.92,0,0,0-4.73,13.6,4.12,4.12,0,0,0,.48,2.24.89.89,0,0,0,.72.49,2.52,2.52,0,0,0,1.21-.57,11.33,11.33,0,0,1,14.6,1.89A12.48,12.48,0,0,1,69,40a13.06,13.06,0,0,1-4,9.46,13.31,13.31,0,0,1-9.83,4.09,15,15,0,0,1-11.63-5.53q-4.91-5.54-4.9-14.84A30.86,30.86,0,0,1,45.25,13.8Q51.91,5.22,66.27,0Z"/></g></g></svg>