<?xml version="1.0" encoding="utf-8"?>
<!-- Generator: Adobe Illustrator 24.3.0, SVG Export Plug-In . SVG Version: 6.00 Build 0)  -->
<svg version="1.1" id="Capa_1" xmlns="http://www.w3.org/2000/svg" xmlns:xlink="http://www.w3.org/1999/xlink" x="0px" y="0px"
	 viewBox="0 0 512 512" style="enable-background:new 0 0 512 512;" xml:space="preserve">
<style type="text/css">
	.st0{fill:#FFFFFF;}
</style>
<g>
	<g>
		<path class="st0" d="M509.6,250L335.1,70.8c-3.2-3.3-9-3.3-12.2,0l-47.4,48.7c-3.2,3.3-3.2,8.6,0,11.9l80.3,81.9H8.5
			c-4.7,0-8.5,3.8-8.5,8.5v68.3c0,4.7,3.8,8.5,8.5,8.5h347.3l-80.3,81.9c-3.2,3.3-3.3,8.6,0,11.9l47.4,48.7c1.6,1.6,3.8,2.6,6.1,2.6
			s4.5-0.9,6.1-2.6l174.5-179.2C512.8,258.6,512.8,253.3,509.6,250z"/>
	</g>
</g>
</svg>
