<?xml version="1.0" encoding="utf-8"?>
<!-- Generator: Adobe Illustrator 24.3.0, SVG Export Plug-In . SVG Version: 6.00 Build 0)  -->
<svg version="1.1" id="Layer_1" xmlns="http://www.w3.org/2000/svg" xmlns:xlink="http://www.w3.org/1999/xlink" x="0px" y="0px"
	 viewBox="0 0 446.5 168.1" style="enable-background:new 0 0 446.5 168.1;" xml:space="preserve">
<style type="text/css">
	.st0{fill:#FFFFFF;}
</style>
<path class="st0" d="M174.2,130.6c1.2,0.5,2.6,0,3.2-1.2c1.6-3.5,2.4-7.2,2.4-11c0-3.2-4.8-3.2-4.8,0c0,3.1-0.7,6.2-1.9,9.1
	C172.5,128.6,173,130,174.2,130.6L174.2,130.6z"/>
<path class="st0" d="M193.6,82.5c-1.6-1.2-3.6-1.7-5.5-1.2c-4,1-8.6,1.9-13.7,2.7c-0.3-10.4-8.8-18.6-19.2-18.7
	c-4.7,0-9.3,1.7-12.8,4.9c-3.8-1-7.8-0.8-11.5,0.5c-3.1-2-6.6-3-10.3-3c-5,0-9.8,1.9-13.3,5.4c-4.9-1.8-10.4,0.4-12.9,5.1
	c-6.1,0.2-11.8,3.3-15.2,8.4C67,85.7,54.8,84,42.8,81.3c-3.5-0.8-7,1.3-7.8,4.7c-0.9,3.5,1.3,7,4.7,7.8c1,0.3,2.1,0.5,3.3,0.8v23.7
	c0,16.7,11.8,31,28.1,34.4l3.6,11.8c0.3,1,1.2,1.7,2.3,1.7h8.2c1.3,0,2.4-1.1,2.4-2.4v-10.4h55.9v10.4c0,1.3,1.1,2.4,2.4,2.4h8.2
	c1.1,0,2-0.7,2.3-1.7l3.6-11.8c16.3-3.3,28.1-17.7,28.1-34.4V94.6c1.1-0.2,2.2-0.5,3.3-0.8c2.4-0.6,4.2-2.5,4.8-4.9
	C196.4,86.5,195.5,84,193.6,82.5L193.6,82.5z M95.1,82.9c0.2,0,0.3,0,0.5,0l0.4,0c1.1,0,2-0.6,2.4-1.7c0.5-1.7,1.8-3,3.4-3.7
	c1.6-0.6,3.5-0.5,5,0.4c1,0.6,2.2,0.4,3-0.5c2.7-3.2,6.8-5,11-5c3.1,0,6.1,1,8.6,2.8c0.7,0.5,1.6,0.6,2.4,0.3
	c3.4-1.5,7.2-1.7,10.7-0.4c0.9,0.3,1.9,0.1,2.5-0.6c2.7-2.8,6.5-4.4,10.4-4.4c8,0,14.4,6.5,14.5,14.5v0.1c-18,2.2-36.1,3.3-54.2,3.2
	c-10.5,0-20.7-0.3-30.3-0.9C87.8,84.4,91.4,82.9,95.1,82.9L95.1,82.9z M82.7,161.3h-4l-2.5-8c0.6,0,1.2,0.1,1.8,0.1h4.7
	C82.7,153.4,82.7,161.3,82.7,161.3z M152.2,161.3h-4v-8h4.7c0.6,0,1.2,0,1.8-0.1L152.2,161.3z M183.1,118.3
	c0,14.8-10.8,27.5-25.4,29.9c-0.1,0-0.1,0-0.2,0c-1.6,0.2-3.1,0.4-4.7,0.4H78c-1.6,0-3.1-0.1-4.7-0.4c-0.1,0-0.1,0-0.2,0
	c-14.6-2.4-25.4-15.1-25.4-29.9V95.6c17.6,3.3,42.1,5.2,67.7,5.2s50.1-1.9,67.7-5.2L183.1,118.3L183.1,118.3z M191.3,87.6
	c0,0.8-0.5,1.5-1.3,1.7c-17.3,4.2-45.2,6.8-74.6,6.8c-29.4,0-57.3-2.5-74.6-6.8c-1.4-0.4-1.7-2.1-0.6-3c0.3-0.2,0.7-0.3,1-0.4
	c0.1,0,0.3,0,0.4,0.1c16.9,4.2,44.5,6.7,73.8,6.7s56.9-2.5,73.8-6.7c0.5-0.1,1,0,1.4,0.3C191.1,86.6,191.3,87,191.3,87.6L191.3,87.6
	z"/>
<path class="st0" d="M96.8,25.9c4.3,0,8.1-2.6,9.8-6.5c1.6-3.9,0.7-8.5-2.3-11.5c-3-3-7.6-3.9-11.5-2.3c-3.9,1.6-6.5,5.5-6.5,9.8
	C86.2,21.2,91,25.9,96.8,25.9L96.8,25.9z M96.8,9.6c2.3,0,4.4,1.4,5.3,3.6c0.9,2.2,0.4,4.7-1.3,6.3c-1.7,1.6-4.1,2.1-6.3,1.2
	s-3.6-3-3.6-5.4C91,12.2,93.6,9.6,96.8,9.6L96.8,9.6z"/>
<path class="st0" d="M128.4,42.9c3.4,0,6.5-2.1,7.9-5.2c1.3-3.2,0.6-6.8-1.8-9.3c-2.4-2.4-6.1-3.2-9.3-1.8c-3.2,1.3-5.2,4.4-5.2,7.9
	C119.9,39.1,123.7,42.9,128.4,42.9L128.4,42.9z M128.4,30.7c1.5,0,2.9,0.9,3.5,2.3c0.6,1.4,0.3,3-0.8,4.1c-1.1,1.1-2.7,1.4-4.1,0.8
	c-1.4-0.6-2.3-1.9-2.3-3.5C124.7,32.3,126.4,30.7,128.4,30.7L128.4,30.7z"/>
<path class="st0" d="M94.4,51.8c0,2.6,1.6,5,4,6c2.4,1,5.2,0.5,7.1-1.4c1.8-1.8,2.4-4.6,1.4-7s-3.4-4-6-4
	C97.3,45.4,94.4,48.3,94.4,51.8L94.4,51.8z M102.6,51.8c0,1.5-1.8,2.3-2.9,1.2c-1.1-1.1-0.3-2.9,1.2-2.9
	C101.8,50.1,102.6,50.9,102.6,51.8L102.6,51.8z"/>
<g>
	<path class="st0" d="M225.9,88.5c-3.7,0-6.5-0.7-8.6-2.2c-2.1-1.4-3.5-3.4-4.3-5.9c-0.8-2.5-1.2-5.4-1.2-8.6V54.1
		c0-3.4,0.4-6.4,1.2-8.9c0.8-2.5,2.3-4.4,4.3-5.8c2.1-1.4,4.9-2,8.6-2c3.5,0,6.2,0.6,8.1,1.8s3.3,2.8,4.2,5c0.8,2.2,1.2,4.7,1.2,7.6
		v4.2h-8.8v-4.3c0-1.4-0.1-2.7-0.2-3.8c-0.1-1.2-0.5-2.1-1.2-2.7c-0.6-0.7-1.7-1-3.3-1s-2.7,0.4-3.4,1.1c-0.7,0.7-1.2,1.7-1.4,2.9
		c-0.2,1.2-0.3,2.6-0.3,4.1v21.7c0,1.8,0.1,3.3,0.4,4.5c0.3,1.2,0.8,2.1,1.6,2.7c0.8,0.6,1.8,0.9,3.1,0.9c1.5,0,2.6-0.4,3.2-1.1
		c0.6-0.7,1-1.7,1.2-2.9c0.2-1.2,0.2-2.5,0.2-4v-4.5h8.8v4c0,3-0.4,5.6-1.2,7.9c-0.8,2.3-2.1,4.1-4.1,5.4
		C232.2,87.9,229.4,88.5,225.9,88.5z"/>
	<path class="st0" d="M245.3,96.6v-6.4c1.9,0.1,3.5,0.1,4.8-0.1c1.3-0.2,2.2-0.6,2.9-1.2c0.7-0.6,1-1.4,1.2-2.5s0-2.3-0.2-3.9
		l-10.5-44.6h8.4l4.3,20.9l2.3,14.6l1.8-14.6l3.7-20.9h8.6l-9.7,45.6c-0.5,2.1-0.9,4-1.4,5.5c-0.5,1.5-1.1,2.8-1.8,3.9
		c-0.7,1-1.7,1.9-2.9,2.4c-1.2,0.6-2.7,1-4.6,1.1S248,96.7,245.3,96.6z"/>
	<path class="st0" d="M276.9,87.9V37.9h28.8v49.9h-9V44.4h-10.8v43.5H276.9z"/>
	<path class="st0" d="M313.2,87.9V37.9h21v6.4h-11.8v14.4h9.3v6.4h-9.3v16.5h12v6.3H313.2z"/>
	<path class="st0" d="M339.6,87.9V37.9h14.7c3,0,5.4,0.6,7.3,1.7c1.9,1.1,3.2,2.7,4.1,4.8c0.9,2.1,1.3,4.7,1.3,7.7
		c0,3.2-0.6,5.9-1.7,7.9c-1.1,2-2.7,3.4-4.7,4.3c-2,0.9-4.3,1.4-7.1,1.4h-4.9v22.2H339.6z M348.7,59.3h3.5c1.6,0,2.9-0.2,3.9-0.7
		c0.9-0.5,1.6-1.2,1.9-2.3c0.3-1,0.5-2.5,0.5-4.2c0-1.8-0.1-3.3-0.4-4.4c-0.3-1.1-0.8-2-1.7-2.5c-0.9-0.5-2.3-0.8-4.2-0.8h-3.5V59.3
		z"/>
	<path class="st0" d="M212.5,161.8v-49.9h12.3c2.2,0,4.2,0.2,6,0.6s3.3,1.1,4.6,2.1c1.3,1,2.3,2.3,3,3.9c0.7,1.6,1,3.7,1,6.2
		c0,2-0.3,3.7-0.8,5.2c-0.6,1.4-1.4,2.6-2.4,3.4c-1.1,0.8-2.4,1.4-4,1.7c2,0.3,3.6,1,4.9,2.1c1.3,1,2.3,2.4,2.9,4.1
		c0.6,1.7,1,3.7,1,6.1c0,2.4-0.3,4.5-0.9,6.3c-0.6,1.8-1.5,3.4-2.7,4.6c-1.2,1.2-2.6,2.1-4.4,2.7c-1.7,0.6-3.8,0.9-6.1,0.9H212.5z
		 M221.6,132.3h3.1c1.8,0,3.2-0.3,4.2-0.8c1-0.5,1.7-1.4,2.1-2.5c0.4-1.1,0.6-2.5,0.6-4.2c0-1.8-0.3-3.1-0.9-4.1
		c-0.6-1-1.5-1.6-2.7-2c-1.2-0.3-2.7-0.5-4.6-0.5h-1.8V132.3z M221.6,155.4h3.5c2.8,0,4.6-0.7,5.6-2c1-1.3,1.5-3.4,1.5-6.2
		c0-2-0.2-3.6-0.7-4.9c-0.5-1.3-1.3-2.2-2.3-2.8c-1.1-0.6-2.5-0.9-4.3-0.9h-3.1V155.4z"/>
	<path class="st0" d="M244.3,161.8l10-49.9h9.7l10,49.9h-8.4l-2-11.5h-8.7l-2,11.5H244.3z M255.8,144.5h6.8l-3.4-21L255.8,144.5z"/>
	<path class="st0" d="M279.1,161.8v-49.9h9.1v20.9h10.2v-20.9h9.1v49.9h-9.1v-22.6h-10.2v22.6H279.1z"/>
	<path class="st0" d="M315.2,161.8v-49.9h9.1v20.9h10.2v-20.9h9.1v49.9h-9.1v-22.6h-10.2v22.6H315.2z"/>
	<path class="st0" d="M348.7,161.8l10-49.9h9.7l10,49.9H370l-2-11.5h-8.7l-2,11.5H348.7z M360.3,144.5h6.8l-3.4-21L360.3,144.5z"/>
	<path class="st0" d="M380.4,161.8l10-22.3c-2.1-1.1-3.7-2.7-5-5c-1.3-2.2-1.9-5-1.9-8.3s0.6-6,1.8-8.1c1.2-2.1,3-3.7,5.4-4.7
		c2.4-1,5.5-1.5,9.2-1.5h11.5v49.9h-9.1v-20.2h-2.9c-0.1,0-0.3,0-0.6,0c-0.3,0-0.5,0-0.6,0l-8,20.2H380.4z M400.2,135.2h2v-17H400
		c-2.7,0-4.7,0.6-6,1.9s-2,3.3-2,6.1c0,2.8,0.6,5,1.8,6.6C395,134.4,397.1,135.2,400.2,135.2z"/>
</g>
</svg>
